<svg width="685" height="199" xmlns="http://www.w3.org/2000/svg" xml:space="preserve" version="1.1" fill="#ffffff">

 <g>
  <title>Layer 1</title>
  <g id="svg_21"/>
  <g id="svg_22"/>
  <g id="svg_23"/>
  <g id="svg_24"/>
  <g id="svg_25"/>
  <g id="svg_26"/>
  <g id="svg_27"/>
  <g id="svg_28"/>
  <g id="svg_29"/>
  <g id="svg_30"/>
  <g id="svg_31"/>
  <g id="svg_32"/>
  <g id="svg_33"/>
  <g id="svg_34"/>
  <g id="svg_35"/>
  <g id="svg_52">
   <path transform="rotate(39.8735 211.951 666.388)" id="svg_7" d="m-203.98101,229.79639c-4.896,1.836 -8.568,5.508 -12.852,8.568c-4.896,3.672 -9.18,7.344 -13.464,11.628c-1.224,1.224 0.612,3.672 2.448,2.448c3.672,-3.672 7.956,-6.12 12.24,-9.18c4.284,-3.06 9.792,-5.508 13.464,-9.18c1.836,-1.836 0.612,-5.508 -1.836,-4.284z"/>
   <path transform="rotate(38.017 268.48 71.708)" id="svg_8" d="m282.06804,58.70537c-11.016,4.284 -21.42,14.688 -29.376,23.256c-1.224,1.836 0.612,3.672 2.448,2.448c4.896,-4.284 10.404,-8.568 15.912,-12.24c4.284,-3.06 9.18,-5.508 12.852,-9.18c1.836,-2.448 0,-4.896 -1.836,-4.284z"/>
   <path transform="rotate(12.8134 105.001 62.8556)" id="svg_9" d="m120.31983,57.68299c-11.016,-0.612 -22.032,3.672 -31.824,7.344c-1.836,0.612 -1.224,3.06 0.612,3.06c10.404,-3.06 20.808,-4.284 31.212,-4.896c3.06,-0.612 3.06,-5.508 0,-5.508z"/>
   <path transform="rotate(-44.1722 209.552 69.0222)" id="svg_10" d="m213.57608,66.16728c-3.06,-3.672 -7.344,-7.344 -11.016,-10.404c-3.06,-2.448 -6.732,1.224 -4.284,4.284c3.061,3.06 6.12,6.732 9.18,10.404c3.061,3.672 6.12,9.18 10.404,12.24c1.836,1.224 4.284,-0.612 3.672,-3.06c0,-4.896 -4.284,-9.792 -7.956,-13.464z"/>
   <path transform="rotate(-100.404 446.721 79.9647)" id="svg_11" d="m452.46293,61.9425c0,-2.448 -4.283,-2.448 -4.283,0c-0.612,6.12 -1.836,11.628 -3.061,17.748c-1.224,5.508 -4.284,11.016 -4.284,17.136c0,3.06 4.284,4.284 5.509,1.224c5.508,-10.404 6.731,-25.092 6.119,-36.108z"/>
   <path transform="rotate(-112.196 498.872 85.9066)" id="svg_12" d="m504.87034,71.98145c-3.061,4.284 -6.12,8.568 -9.181,12.852c-2.447,4.284 -6.731,8.568 -7.344,13.464c0,2.448 2.448,3.06 4.284,2.448c4.284,-1.836 6.12,-7.344 7.956,-11.016c3.06,-4.896 5.508,-10.404 8.568,-15.3c1.225,-3.06 -2.447,-4.896 -4.283,-2.448z"/>
   <path transform="rotate(21.6346 15.2898 18.8338)" id="svg_15" d="m23.93824,29.61289c-4.284,-2.447 -7.956,-4.283 -11.016,-7.955c-3.06,-4.896 -4.284,-12.24 -4.284,-17.748c0,-1.837 -3.06,-1.837 -3.06,0c-1.224,11.628 1.224,31.823 17.136,31.212c2.448,-0.612 3.672,-4.284 1.224,-5.509z"/>
   <path transform="rotate(10.8262 48.0817 55.1349)" id="svg_16" d="m68.83527,54.60916c-6.731,-0.612 -13.464,0.611 -20.195,0.611c-8.569,-0.611 -16.525,-3.06 -23.257,-7.956c-1.224,-0.611 -1.836,1.225 -1.224,1.836c12.852,9.792 30.601,18.36 46.513,11.628c3.059,-1.836 1.223,-6.119 -1.837,-6.119z"/>
   <path transform="rotate(-134.227 599.808 108.577)" stroke="null" id="svg_17" d="m611.87732,101.17694c-4.284,1.99649 -7.956,4.99124 -12.852,7.48685c-4.284,1.99649 -9.181,2.99474 -14.076,3.49387c-3.061,0.49912 -3.061,3.99299 0,3.99299c11.016,0.49912 25.092,-2.49562 31.212,-10.98072c2.449,-2.49562 -1.224,-4.99205 -4.284,-3.99299z"/>
   <path transform="rotate(53.7013 553.567 92.3962)" id="svg_18" d="m562.31863,77.89144c-7.956,7.956 -16.523,16.524 -22.032,26.316c-1.836,3.061 2.448,4.896 4.284,2.448c6.732,-8.568 17.748,-14.688 22.645,-25.092c0.611,-3.059 -2.449,-6.119 -4.897,-3.672z"/>
   <path transform="rotate(42.4661 631.851 137.121)" id="svg_19" d="m645.09906,140.20658c-1.836,-3.672 -6.732,-6.12 -10.404,-7.956c-4.284,-1.836 -9.18,-2.447 -14.076,-2.447c-3.06,0 -3.06,4.283 0,4.283c4.284,0 7.956,1.225 11.628,3.061c3.061,1.836 5.509,4.896 8.568,6.731c2.448,1.835 5.507,-1.224 4.284,-3.672z"/>
   <path transform="rotate(43.32 651.799 165.755)" stroke="null" id="svg_20" d="m672.24186,183.67207c-8.568,-13.01466 -14.076,-27.72688 -21.42,-41.3074c-3.672,-6.2244 -13.464,-0.56585 -10.404,5.65855c5.508,11.31617 10.404,23.20004 17.748,33.95128c-5.508,0.56585 -11.016,1.13171 -17.136,1.69756c-2.448,0.56585 -6.732,0.56585 -8.568,2.8302l-0.611,0.56493c0,0 -0.612,0 -0.612,0.56585c-1.224,1.13171 0,3.39513 1.224,3.39513l0,0c0.612,0.56585 1.225,0.56585 2.448,0.56585c3.061,0.56493 6.12,0 9.792,0c7.956,-0.56585 15.3,-1.13263 23.256,-0.56585c3.671,0.56585 6.119,-3.96098 4.283,-7.35611z"/>
   <path transform="rotate(-100.404 446.721 79.9645)" id="svg_37" d="m452.46293,61.94251c0,-2.448 -4.283,-2.448 -4.283,0c-0.612,6.12 -1.836,11.628 -3.061,17.748c-1.224,5.508 -4.284,11.016 -4.284,17.136c0,3.06 4.284,4.284 5.509,1.224c5.508,-10.404 6.731,-25.092 6.119,-36.108z"/>
   <path transform="rotate(-112.196 498.872 85.9065)" id="svg_38" d="m504.87034,71.98145c-3.061,4.284 -6.12,8.568 -9.181,12.852c-2.447,4.284 -6.731,8.568 -7.344,13.464c0,2.448 2.448,3.06 4.284,2.448c4.284,-1.836 6.12,-7.344 7.956,-11.016c3.06,-4.896 5.508,-10.404 8.568,-15.3c1.225,-3.06 -2.447,-4.896 -4.283,-2.448z"/>
   <path transform="rotate(53.7013 553.567 92.3965)" stroke="null" id="svg_40" d="m562.31862,77.89145c-7.956,7.956 -16.523,16.524 -22.032,26.316c-1.836,3.061 2.448,4.896 4.284,2.448c6.732,-8.568 17.748,-14.688 22.645,-25.092c0.611,-3.059 -2.449,-6.119 -4.897,-3.672z"/>
   <path transform="rotate(-100.404 446.721 79.9645)" id="svg_41" d="m452.46293,61.94251c0,-2.448 -4.283,-2.448 -4.283,0c-0.612,6.12 -1.836,11.628 -3.061,17.748c-1.224,5.508 -4.284,11.016 -4.284,17.136c0,3.06 4.284,4.284 5.509,1.224c5.508,-10.404 6.731,-25.092 6.119,-36.108z"/>
   <path transform="rotate(-112.196 498.872 85.9065)" id="svg_42" d="m504.87034,71.98145c-3.061,4.284 -6.12,8.568 -9.181,12.852c-2.447,4.284 -6.731,8.568 -7.344,13.464c0,2.448 2.448,3.06 4.284,2.448c4.284,-1.836 6.12,-7.344 7.956,-11.016c3.06,-4.896 5.508,-10.404 8.568,-15.3c1.225,-3.06 -2.447,-4.896 -4.283,-2.448z"/>
   <path transform="rotate(53.7013 553.567 92.3965)" id="svg_44" d="m562.31862,77.89145c-7.956,7.956 -16.523,16.524 -22.032,26.316c-1.836,3.061 2.448,4.896 4.284,2.448c6.732,-8.568 17.748,-14.688 22.645,-25.092c0.611,-3.059 -2.449,-6.119 -4.897,-3.672z"/>
   <path transform="rotate(-100.404 446.721 79.9645)" id="svg_45" d="m452.46293,61.94251c0,-2.448 -4.283,-2.448 -4.283,0c-0.612,6.12 -1.836,11.628 -3.061,17.748c-1.224,5.508 -4.284,11.016 -4.284,17.136c0,3.06 4.284,4.284 5.509,1.224c5.508,-10.404 6.731,-25.092 6.119,-36.108z"/>
   <path transform="rotate(-112.196 498.872 85.9065)" id="svg_46" d="m504.87034,71.98145c-3.061,4.284 -6.12,8.568 -9.181,12.852c-2.447,4.284 -6.731,8.568 -7.344,13.464c0,2.448 2.448,3.06 4.284,2.448c4.284,-1.836 6.12,-7.344 7.956,-11.016c3.06,-4.896 5.508,-10.404 8.568,-15.3c1.225,-3.06 -2.447,-4.896 -4.283,-2.448z"/>
   <path transform="rotate(53.7013 553.567 92.3965)" stroke="null" id="svg_48" d="m562.31862,77.89145c-7.956,7.956 -16.523,16.524 -22.032,26.316c-1.836,3.061 2.448,4.896 4.284,2.448c6.732,-8.568 17.748,-14.688 22.645,-25.092c0.611,-3.059 -2.449,-6.119 -4.897,-3.672z"/>
   <path transform="rotate(-127.818 329.243 70.7745)" stroke="null" id="svg_49" d="m337.38018,54.67749c-7.39747,8.82934 -15.36305,18.33787 -20.48531,29.20475c-1.70711,3.39701 2.27615,5.43344 3.98325,2.71672c6.2594,-9.50852 16.50205,-16.30032 21.05528,-27.84639c0.56811,-3.39479 -2.27708,-6.79069 -4.55322,-4.07508z"/>
   <path transform="rotate(-127.818 389.243 74.1081)" stroke="null" id="svg_51" d="m396.93843,62.13445c-6.99533,6.56765 -14.52789,13.6405 -19.3717,21.72376c-1.61431,2.52684 2.15242,4.04163 3.76672,2.02081c5.91913,-7.07285 15.60498,-12.12488 19.91068,-20.71335c0.53723,-2.52519 -2.15329,-5.05121 -4.3057,-3.03122z"/>
  </g>
 </g>
</svg>