<svg width="761" height="413" xmlns="http://www.w3.org/2000/svg" xml:space="preserve" version="1.1" fill="#ffffff">

 <g>
  <title>Layer 1</title>
  <g id="svg_21"/>
  <g id="svg_22"/>
  <g id="svg_23"/>
  <g id="svg_24"/>
  <g id="svg_25"/>
  <g id="svg_26"/>
  <g id="svg_27"/>
  <g id="svg_28"/>
  <g id="svg_29"/>
  <g id="svg_30"/>
  <g id="svg_31"/>
  <g id="svg_32"/>
  <g id="svg_33"/>
  <g id="svg_34"/>
  <g id="svg_35"/>
  <g id="svg_54">
   <path transform="rotate(-148.647 222.861 220.059)" stroke="null" id="svg_4" d="m240.05591,211.77167c-8.79706,1.98283 -17.59412,4.36222 -24.92501,6.74161c-7.33088,2.37939 -16.12795,5.55191 -16.12795,8.32787c0,1.58626 7.33088,2.37939 10.26324,1.1897c7.33088,-1.98283 8.79706,-5.15535 14.66177,-7.53474c5.86471,-2.77596 13.19559,-4.75878 21.99265,-7.13817c2.93235,-1.1897 -2.93235,-2.37939 -5.86471,-1.58626z"/>
   <path transform="rotate(-49.1018 97.0682 169.074)" stroke="null" id="svg_5" d="m98.73843,174.13097c-1.02781,-8.4369 -1.54172,-17.92841 -1.54172,-27.41991c0,-3.16384 -2.56953,-3.16384 -2.56953,0c0,12.65535 -3.08344,37.96604 3.08344,46.40293c1.02781,2.10922 2.56953,-1.05461 2.56953,-3.16384c0,-5.27306 -1.02781,-10.54612 -1.54172,-15.81918z"/>
   <path transform="rotate(48.1162 50.538 123.931)" stroke="null" id="svg_6" d="m71.52858,121.25166c-15.83926,1.45259 -29.69861,3.63149 -44.54791,-2.17889c-1.97991,-0.7263 -2.96986,0.7263 -0.98995,1.45259c14.8493,7.98927 31.67851,11.62075 48.50772,5.08408c3.95981,-1.45259 0,-5.08408 -2.96986,-4.35778z"/>
   <path transform="rotate(19.0178 423.778 235.651)" stroke="null" id="svg_7" d="m443.39805,227.43837c-8.00755,1.32661 -14.01321,3.97983 -21.01982,6.19085c-8.00755,2.65322 -15.01415,5.30644 -22.02076,8.40186c-2.00189,0.88441 1.00094,2.65322 4.00377,1.76881c6.00566,-2.65322 13.01227,-4.42203 20.01887,-6.63305c7.00661,-2.21102 16.0151,-3.97983 22.02076,-6.63305c3.00283,-1.32661 1.00094,-3.97983 -3.00283,-3.09542z"/>
   <path transform="rotate(42.6629 560.92 250.648)" stroke="null" id="svg_8" d="m577.20951,238.61528c-13.2061,3.96462 -25.67854,13.59298 -35.21628,21.52222c-1.46734,1.69912 0.73367,3.39825 2.93469,2.2655c5.86938,-3.96462 12.47243,-7.92924 19.07548,-11.32749c5.13571,-2.83187 11.00509,-5.09737 15.40712,-8.49561c2.20102,-2.2655 0,-4.53099 -2.20102,-3.96462z"/>
   <path transform="rotate(-149.011 156.352 201.189)" stroke="null" id="svg_9" d="m178.18993,195.48552c-15.70402,-0.67481 -31.40804,4.04888 -45.36717,8.09777c-2.61734,0.67481 -1.74489,3.37407 0.87245,3.37407c14.83157,-3.37407 29.66315,-4.7237 44.49472,-5.39851c4.36223,-0.67481 4.36223,-6.07332 0,-6.07332z"/>
   <path transform="rotate(-163.355 8.24539 17.8856)" stroke="null" id="svg_10" d="m10.01783,15.03067c-1.34783,-3.672 -3.2348,-7.344 -4.85219,-10.404c-1.34783,-2.448 -2.96523,1.224 -1.88696,4.284c1.34827,3.06 2.69566,6.732 4.04349,10.404c1.34827,3.672 2.69566,9.18 4.58263,12.24c0.8087,1.224 1.88696,-0.612 1.6174,-3.06c0,-4.896 -1.88696,-9.792 -3.50436,-13.464z"/>
   <path transform="rotate(85.429 355.105 232.411)" stroke="null" id="svg_11" d="m359.01397,210.72661c0,-2.9455 -2.91549,-2.9455 -2.91549,0c-0.4166,7.36375 -1.24979,13.99112 -2.08366,21.35487c-0.83319,6.62737 -2.91617,13.25475 -2.91617,20.6185c0,3.68187 2.91617,5.15462 3.75005,1.47275c3.74937,-12.51837 4.58188,-30.19137 4.16528,-43.44612z"/>
   <path transform="rotate(-103.552 289.763 229.07)" stroke="null" id="svg_13" d="m296.38986,205.07562c-3.89114,6.21263 -6.91758,12.42526 -9.51167,19.41446c-2.59409,6.98921 -6.05288,17.08473 -5.18819,25.62709c0.43235,3.88289 2.59409,4.65947 3.89114,1.55316c2.16174,-5.43605 2.59409,-13.20184 3.89114,-19.41446c1.7294,-9.31894 4.75584,-17.86131 8.21463,-25.62709c0.8647,-0.77658 -0.43235,-3.10631 -1.29705,-1.55316z"/>
   <path transform="rotate(94.384 621.966 266.993)" stroke="null" id="svg_14" d="m627.70707,246.4719c-3.60024,4.896 -6.40043,10.404 -8.80059,17.136c-2.40016,6.732 -5.20035,15.301 -4.4003,22.645c0.40003,2.448 2.80019,2.448 3.20021,0.612c2.40016,-5.509 2.40016,-12.853 4.00027,-18.973c1.60011,-6.731 4.4003,-13.464 7.60051,-19.584c0.80005,-1.224 -0.40003,-3.672 -1.60011,-1.836z"/>
   <path transform="rotate(-135.795 678.16 297.888)" stroke="null" id="svg_16" d="m657.96582,297.56512c6.5496,-0.37609 13.10114,0.37547 19.65074,0.37547c8.33806,-0.37547 16.07965,-1.88044 22.63022,-4.88915c1.19101,-0.37547 1.78652,0.75279 1.19101,1.12827c-12.50564,6.01742 -29.7763,11.28266 -45.25946,7.14569c-2.97656,-1.12827 -1.19004,-3.76027 1.78749,-3.76027z"/>
   <path transform="rotate(77.3208 21.9144 68.4589)" stroke="null" id="svg_17" d="m39.05272,63.31701c-6.08302,1.38718 -11.29703,3.46795 -18.24905,5.20193c-6.08302,1.38718 -13.03646,2.08077 -19.98706,2.42757c-4.34643,0.3468 -4.34643,2.77436 0,2.77436c15.64204,0.3468 35.6291,-1.73398 44.31913,-7.6295c3.47743,-1.73398 -1.738,-3.46852 -6.08302,-2.77436z"/>
   <path transform="rotate(78.7493 494.544 240.772)" stroke="null" id="svg_18" d="m499.18946,218.04964c-4.22268,12.46333 -8.76965,25.88537 -11.69357,41.22485c-0.97446,4.79515 1.29929,7.66974 2.27375,3.83487c3.57304,-13.42204 9.41982,-23.00922 12.01892,-39.30742c0.32429,-4.79202 -1.29982,-9.58561 -2.5991,-5.7523z"/>
   <path transform="rotate(54.8292 717.996 348.957)" stroke="null" id="svg_19" d="m739.24027,351.4784c-2.9441,-3.00061 -10.79505,-5.00101 -16.68326,-6.50131c-6.86958,-1.5003 -14.72052,-1.99959 -22.57146,-1.99959c-4.90684,0 -4.90684,3.49989 0,3.49989c6.86958,0 12.75778,1.00102 18.64599,2.50132c4.90844,1.5003 8.83392,4.00081 13.73915,5.50029c3.92547,1.49949 8.83071,-1.0002 6.86958,-3.00061z"/>
   <path transform="rotate(43.1039 739.463 376.965)" id="svg_20" d="m759.90546,396.34325c-8.568,-14.076 -14.076,-29.988 -21.42,-44.676c-3.672,-6.732 -13.464,-0.612 -10.404,6.12c5.508,12.239 10.404,25.092 17.748,36.72c-5.508,0.612 -11.016,1.224 -17.136,1.836c-2.448,0.612 -6.732,0.612 -8.568,3.061l-0.611,0.611c0,0 -0.612,0 -0.612,0.612c-1.224,1.224 0,3.672 1.224,3.672l0,0c0.612,0.612 1.225,0.612 2.448,0.612c3.061,0.611 6.12,0 9.792,0c7.956,-0.612 15.3,-1.225 23.256,-0.612c3.671,0.612 6.119,-4.284 4.283,-7.956z"/>
  </g>
 </g>
</svg>