<svg width="647" height="276" xmlns="http://www.w3.org/2000/svg" xml:space="preserve" version="1.1" fill="#ffffff">

 <g>
  <title>Layer 1</title>
  <g id="svg_21"/>
  <g id="svg_22"/>
  <g id="svg_23"/>
  <g id="svg_24"/>
  <g id="svg_25"/>
  <g id="svg_26"/>
  <g id="svg_27"/>
  <g id="svg_28"/>
  <g id="svg_29"/>
  <g id="svg_30"/>
  <g id="svg_31"/>
  <g id="svg_32"/>
  <g id="svg_33"/>
  <g id="svg_34"/>
  <g id="svg_35"/>
  <path transform="rotate(44.3557 149.535 105.672)" stroke="null" id="svg_7" d="m161.53151,96.31556c-4.896,1.51127 -8.568,4.5338 -12.852,7.05257c-4.896,3.02253 -9.18,6.04506 -13.464,9.57135c-1.224,1.00751 0.612,3.02253 2.448,2.01502c3.672,-3.02253 7.956,-5.03755 12.24,-7.55633c4.284,-2.51878 9.792,-4.5338 13.464,-7.55633c1.836,-1.51127 0.612,-4.5338 -1.836,-3.52629z"/>
  <path transform="rotate(37.8343 251.974 125.85)" stroke="null" id="svg_8" d="m265.56153,116.9044c-11.016,2.94718 -21.42,10.10461 -29.376,15.99897c-1.224,1.26308 0.612,2.52615 2.448,1.6841c4.896,-2.94718 10.404,-5.89436 15.912,-8.42051c4.284,-2.10513 9.18,-3.78923 12.852,-6.31538c1.836,-1.6841 0,-3.3682 -1.836,-2.94718z"/>
  <path transform="rotate(25.2313 101.578 91.7304)" stroke="null" id="svg_9" d="m116.89671,87.92737c-11.016,-0.44996 -22.032,2.69976 -31.824,5.39952c-1.836,0.44996 -1.224,2.2498 0.612,2.2498c10.404,-2.2498 20.808,-3.14972 31.212,-3.59968c3.06,-0.44996 3.06,-4.04964 0,-4.04964z"/>
  <path transform="rotate(-59.6038 198.106 116.425)" stroke="null" id="svg_10" d="m200.01992,112.89647c-1.4555,-4.53834 -3.49321,-9.07668 -5.23981,-12.85863c-1.4555,-3.02556 -3.2021,1.51278 -2.0377,5.29473c1.45598,3.78195 2.911,8.32029 4.36651,12.85863c1.45598,4.53834 2.911,11.34585 4.94871,15.1278c0.8733,1.51278 2.0377,-0.75639 1.7466,-3.78195c0,-6.05112 -2.0377,-12.10224 -3.78431,-16.64058z"/>
  <path transform="rotate(-100.739 489.728 166.218)" stroke="null" id="svg_12" d="m493.34203,152.2932c-1.84415,4.284 -3.68709,8.568 -5.53124,12.852c-1.47423,4.284 -4.0552,8.568 -4.42451,13.464c0,2.448 1.47484,3.06 2.58096,2.448c2.58096,-1.836 3.68709,-7.344 4.79322,-11.016c1.84355,-4.896 3.31838,-10.404 5.16193,-15.3c0.73802,-3.06 -1.47423,-4.896 -2.58036,-2.448z"/>
  <path transform="rotate(13.8135 26.4095 25.5931)" stroke="null" id="svg_15" d="m30.63846,36.37223c-2.0948,-2.447 -3.89034,-4.283 -5.38662,-7.955c-1.49628,-4.896 -2.0948,-12.24 -2.0948,-17.748c0,-1.837 -1.49628,-1.837 -1.49628,0c-0.59851,11.628 0.59851,31.823 8.37918,31.212c1.19703,-0.612 1.79554,-4.284 0.59851,-5.509z"/>
  <path transform="rotate(33.3039 50.5214 67.608)" stroke="null" id="svg_16" d="m71.27502,67.27533c-6.731,-0.38722 -13.464,0.38659 -20.195,0.38659c-8.569,-0.38659 -16.525,-1.9361 -23.257,-5.03386c-1.224,-0.38659 -1.836,0.77507 -1.224,1.16166c12.852,6.19552 30.601,11.61661 46.513,7.35718c3.059,-1.16166 1.223,-3.87157 -1.837,-3.87157z"/>
  <path transform="rotate(-141.869 585.25 187.702)" stroke="null" id="svg_17" d="m597.31936,183.28503c-4.284,1.1917 -7.956,2.97925 -12.852,4.46887c-4.284,1.1917 -9.181,1.78755 -14.076,2.08547c-3.061,0.29792 -3.061,2.3834 0,2.3834c11.016,0.29792 25.092,-1.48962 31.212,-6.55434c2.449,-1.48962 -1.224,-2.97973 -4.284,-2.3834z"/>
  <path transform="rotate(76.0607 539.695 174.168)" stroke="null" id="svg_18" d="m544.22737,159.66288c-4.12011,7.956 -8.55664,16.524 -11.40954,26.316c-0.9508,3.061 1.26773,4.896 2.21852,2.448c3.48625,-8.568 9.19102,-14.688 11.72699,-25.092c0.31641,-3.059 -1.26824,-6.119 -2.53597,-3.672z"/>
  <path transform="rotate(62.3468 613.29 222.689)" stroke="null" id="svg_19" d="m633.01029,225.05879c-2.73296,-2.82062 -10.02087,-4.70104 -15.48679,-6.11135c-6.37692,-1.41031 -13.66482,-1.87965 -20.95272,-1.87965c-4.55494,0 -4.55494,3.28996 0,3.28996c6.37692,0 11.84284,0.94098 17.30877,2.35129c4.55643,1.41031 8.20038,3.76083 12.75383,5.17037c3.64395,1.40954 8.1974,-0.94021 6.37692,-2.82062z"/>
  <path transform="rotate(43.32 631.835 245.453)" stroke="null" id="svg_20" d="m652.2781,263.37016c-8.568,-13.01466 -14.076,-27.72688 -21.42,-41.3074c-3.672,-6.2244 -13.464,-0.56585 -10.404,5.65855c5.508,11.31617 10.404,23.20004 17.748,33.95128c-5.508,0.56585 -11.016,1.13171 -17.136,1.69756c-2.448,0.56585 -6.732,0.56585 -8.568,2.8302l-0.611,0.56493c0,0 -0.612,0 -0.612,0.56585c-1.224,1.13171 0,3.39513 1.224,3.39513l0,0c0.612,0.56585 1.225,0.56585 2.448,0.56585c3.061,0.56493 6.12,0 9.792,0c7.956,-0.56585 15.3,-1.13263 23.256,-0.56585c3.671,0.56585 6.119,-3.96098 4.283,-7.35611z"/>
  <path transform="rotate(-86.3568 438.088 156.195)" stroke="null" id="svg_45" d="m441.33989,138.17308c0,-2.448 -2.42542,-2.448 -2.42542,0c-0.34657,6.12 -1.03971,11.628 -1.73342,17.748c-0.69314,5.508 -2.42599,11.016 -2.42599,17.136c0,3.06 2.42599,4.284 3.1197,1.224c3.11913,-10.404 3.8117,-25.092 3.46513,-36.108z"/>
  <path transform="rotate(-110.251 296.027 133.987)" stroke="null" id="svg_49" d="m300.95263,122.31077c-4.47727,6.40456 -9.29839,13.30177 -12.3986,21.18431c-1.03322,2.4641 1.37762,3.94127 2.41084,1.97063c3.78846,-6.89722 9.98776,-11.8238 12.74357,-20.19899c0.34384,-2.46249 -1.37818,-4.92578 -2.75581,-2.95595z"/>
  <path transform="rotate(-108.675 388.85 147.825)" stroke="null" id="svg_51" d="m392.91375,135.85144c-3.69451,6.56765 -7.67274,13.6405 -10.23095,21.72376c-0.85258,2.52684 1.13677,4.04163 1.98935,2.02081c3.12612,-7.07285 8.24159,-12.12488 10.5156,-20.71335c0.28373,-2.52519 -1.13723,-5.05121 -2.27401,-3.03122z"/>
  <path transform="rotate(76.0607 342.697 141.344)" stroke="null" id="svg_53" d="m347.81921,124.16571c-4.65674,9.42253 -9.67108,19.56987 -12.89556,31.16683c-1.07462,3.62523 1.43284,5.79848 2.50748,2.89924c3.94031,-10.14734 10.38809,-17.39544 13.25435,-29.71721c0.35762,-3.62287 -1.43343,-7.24691 -2.86626,-4.34886z"/>
 </g>
</svg>