<svg width="153" height="449.99999999999994" xmlns="http://www.w3.org/2000/svg" xml:space="preserve" version="1.1">

 <g>
  <title>Layer 1</title>
  <g id="svg_20"/>
  <g id="svg_21"/>
  <g id="svg_22"/>
  <g id="svg_23"/>
  <g id="svg_24"/>
  <g id="svg_25"/>
  <g id="svg_26"/>
  <g id="svg_27"/>
  <g id="svg_28"/>
  <g id="svg_29"/>
  <g id="svg_30"/>
  <g id="svg_31"/>
  <g id="svg_32"/>
  <g id="svg_33"/>
  <g id="svg_34"/>
  <g id="svg_36">
   <path transform="rotate(-128.529 90.8393 21.1133)" stroke="null" fill="#ffffff" id="svg_3" d="m104.89345,18.26176c-8.76571,-2.23993 -18.84628,1.34396 -27.61199,2.23993c-2.19143,0 -2.62971,3.58388 0,4.03187c8.76571,0.44799 19.28456,0 27.61199,-2.23993c1.75386,-0.89597 1.75386,-3.58388 0,-4.03187z"/>
   <path transform="rotate(42.7866 119.201 57.4117)" fill="#ffffff" id="svg_4" d="m136.26318,60.38488c-8.568,-8.568 -22.032,-10.404 -33.048,-9.792c-2.448,0 -2.448,3.672 0,3.672c6.12,0.612 11.628,1.836 17.136,3.672c4.896,1.836 9.18,4.284 14.076,6.12c1.836,1.224 3.672,-1.836 1.836,-3.672z"/>
   <path transform="rotate(32.8656 137.472 102.098)" fill="#ffffff" id="svg_5" d="m152.11162,112.53044c-2.448,-5.508 -7.344,-10.404 -12.24,-14.076c-4.284,-4.284 -9.792,-7.956 -14.688,-11.016c-1.836,-1.224 -3.672,1.224 -1.836,2.448c4.896,3.672 9.18,7.956 12.852,12.24c4.284,4.284 7.344,9.792 11.628,14.076c1.835,2.448 5.507,-0.612 4.284,-3.672z"/>
   <path transform="rotate(22.6193 143.115 150.645)" fill="#ffffff" id="svg_6" d="m141.70044,138.42005c-1.836,-3.06 -6.121,-0.612 -4.284,2.448c1.224,3.06 3.06,6.732 4.284,9.792c1.224,4.284 0.611,8.568 2.447,12.24c0.612,1.836 3.672,1.836 4.284,0c3.061,-6.732 -3.059,-17.748 -6.731,-24.48z"/>
   <path transform="rotate(20.5823 134.527 194.56)" fill="#ffffff" id="svg_7" d="m137.43293,196.31942c0,-6.12 0,-12.24 -1.224,-17.748c-0.612,-3.06 -4.284,-3.06 -4.284,0c-0.612,5.508 -0.612,10.404 -0.612,15.912s-1.224,11.016 0.612,16.524c0.612,2.447 4.896,2.447 5.508,0c1.225,-4.896 0.613,-9.792 0,-14.688z"/>
   <path transform="rotate(32.5192 99.2657 245.162)" stroke="null" fill="#ffffff" id="svg_8" d="m103.50239,231.45528c-1.78286,4.55882 -3.56573,9.11689 -6.24002,13.67571c-2.22858,4.10368 -5.34859,8.20662 -5.7943,12.76544c-0.44572,2.27941 2.67429,2.73529 4.01144,1.82278c3.56573,-3.19043 5.34932,-8.66176 7.13145,-13.22058c2.22931,-4.55882 3.56573,-9.11689 4.45716,-13.67571c0.44572,-2.73529 -3.12074,-3.64706 -3.56573,-1.36765z"/>
   <path transform="rotate(53.1521 52.7628 257.136)" fill="#ffffff" id="svg_9" d="m63.05877,244.27139c-3.672,4.283 -7.344,9.18 -11.016,12.852c-1.836,1.836 -4.284,3.672 -6.732,4.896c-2.448,1.224 -3.672,1.224 -5.508,3.672c-1.224,1.836 0,4.284 1.836,4.896c5.508,1.225 10.404,-4.284 14.076,-7.956c4.284,-4.896 7.344,-10.403 10.404,-16.523c0.613,-1.837 -1.836,-3.673 -3.06,-1.837z"/>
   <path transform="rotate(51.3975 16.8177 229.002)" stroke="null" fill="#ffffff" id="svg_11" d="m32.35383,232.76667c-4.896,-0.38293 -10.404,-1.15067 -15.3,-2.30134c-5.508,-1.5336 -7.956,-4.2185 -11.016,-7.28759c-1.836,-1.53423 -5.508,-1.15067 -6.12,1.15067c-0.612,10.35605 20.196,12.27384 32.436,11.12316c1.836,-0.38293 1.836,-2.6849 0,-2.6849z"/>
   <path transform="rotate(67.8954 30.6707 187.19)" fill="#ffffff" id="svg_12" d="m36.08879,200.82411c-4.896,-9.18 -3.672,-18.36 -5.508,-28.152c-0.612,-2.447 -4.284,-2.447 -4.896,0c-1.836,10.404 1.224,21.42 7.344,29.988c1.224,1.836 3.673,0.612 3.06,-1.836z"/>
   <path transform="rotate(93.0994 82.4245 188.264)" fill="#ffffff" id="svg_13" d="m86.65406,167.85924c-11.016,10.404 -13.464,25.705 -12.852,39.78c0,2.448 4.284,2.448 4.284,0c0.612,-12.852 4.284,-25.704 12.24,-36.107c2.449,-2.449 -1.223,-6.121 -3.672,-3.673z"/>
   <path transform="rotate(113.089 124.706 231.328)" fill="#ffffff" id="svg_14" d="m136.35807,216.57859c-11.016,5.508 -19.584,15.912 -26.316,26.316c-1.836,2.448 2.448,4.896 3.672,2.448c7.344,-9.18 16.524,-16.524 25.092,-24.48c2.448,-2.448 -0.001,-5.508 -2.448,-4.284z"/>
   <path transform="rotate(127.172 133.538 279.918)" fill="#ffffff" id="svg_15" d="m144.57752,270.94673c-8.568,0 -18.36,7.344 -23.868,13.464c-2.448,2.448 1.224,6.12 3.672,3.672c3.06,-3.06 6.732,-5.508 10.404,-7.344c3.672,-1.836 7.956,-3.06 11.628,-5.508c1.836,-1.224 0,-4.284 -1.836,-4.284z"/>
   <path transform="rotate(127.172 120.936 325.402)" fill="#ffffff" id="svg_16" d="m136.54225,319.55839c-4.896,0 -9.792,1.836 -14.688,2.448c-6.12,1.224 -12.24,1.836 -17.748,4.284c-3.06,1.224 -1.836,5.508 1.224,4.896c5.508,-1.224 11.628,-1.836 17.136,-2.448c4.896,-0.612 11.016,-0.612 15.3,-3.672c3.06,-1.224 1.835,-5.508 -1.224,-5.508z"/>
   <path transform="rotate(127.172 97.9556 366.516)" stroke="null" fill="#ffffff" id="svg_17" d="m111.11393,364.34905c-7.956,-1.44438 -17.748,0 -26.316,0.48146c-3.06,0 -3.06,3.37022 0,3.37022c8.568,0.48146 17.748,1.92584 26.316,0.48146c3.059,-0.48146 3.059,-3.85168 0,-4.33314z"/>
   <path transform="rotate(127.172 72.3944 400.198)" fill="#ffffff" id="svg_18" d="m85.78241,397.75c-4.284,-1.224 -8.568,-0.612 -12.853,-0.612c-4.283,0 -9.18,0 -13.464,0.612c-3.06,0 -3.06,4.896 0,4.896c4.284,0 9.181,0 13.464,0.612c4.284,0 8.568,0.612 12.853,-0.612c2.448,0 2.448,-3.672 0,-4.896z"/>
   <path transform="rotate(127.172 54.6156 425.704)" fill="#ffffff" id="svg_19" d="m79.90119,429.92845c-7.956,-7.956 -15.912,-15.3 -24.479,-22.032c-6.12,-4.896 -15.301,-14.076 -23.257,-13.464c-3.06,0 -5.508,3.672 -3.672,6.732c3.672,6.12 12.24,9.792 17.748,13.464c6.732,4.896 13.464,11.016 20.196,17.136c-12.24,4.896 -24.48,11.628 -36.108,17.748c-3.672,1.836 -1.224,8.568 3.061,7.344c15.3,-4.896 28.764,-14.688 44.676,-17.748c3.671,-0.612 4.284,-6.12 1.835,-9.18z"/>
  </g>
 </g>
</svg>