<svg width="153" height="567" xmlns="http://www.w3.org/2000/svg" version="1.1" xml:space="preserve">
 <g>
  <title>Layer 1</title>
  <g id="svg_20"/>
  <g id="svg_21"/>
  <g id="svg_22"/>
  <g id="svg_23"/>
  <g id="svg_24"/>
  <g id="svg_25"/>
  <g id="svg_26"/>
  <g id="svg_27"/>
  <g id="svg_28"/>
  <g id="svg_29"/>
  <g id="svg_30"/>
  <g id="svg_31"/>
  <g id="svg_32"/>
  <g id="svg_33"/>
  <g id="svg_34"/>
  <path transform="rotate(-90.4943 77.8393 24.3546)" d="m91.89345,21.50313c-8.76571,-2.23993 -18.84628,1.34396 -27.61199,2.23993c-2.19143,0 -2.62971,3.58388 0,4.03187c8.76571,0.44799 19.28456,0 27.61199,-2.23993c1.75386,-0.89597 1.75386,-3.58388 0,-4.03187z" id="svg_3" fill="#ffffff" stroke="null"/>
  <path transform="rotate(42.7866 116.201 102.653)" d="m133.26318,105.62625c-8.568,-8.568 -22.032,-10.404 -33.048,-9.792c-2.448,0 -2.448,3.672 0,3.672c6.12,0.612 11.628,1.836 17.136,3.672c4.896,1.836 9.18,4.284 14.076,6.12c1.836,1.224 3.672,-1.836 1.836,-3.672z" id="svg_4" fill="#ffffff"/>
  <path transform="rotate(32.8656 134.472 147.34)" d="m149.11162,157.77181c-2.448,-5.508 -7.344,-10.404 -12.24,-14.076c-4.284,-4.284 -9.792,-7.956 -14.688,-11.016c-1.836,-1.224 -3.672,1.224 -1.836,2.448c4.896,3.672 9.18,7.956 12.852,12.24c4.284,4.284 7.344,9.792 11.628,14.076c1.835,2.448 5.507,-0.612 4.284,-3.672z" id="svg_5" fill="#ffffff"/>
  <path transform="rotate(22.6193 140.115 195.887)" d="m138.70044,183.66142c-1.836,-3.06 -6.121,-0.612 -4.284,2.448c1.224,3.06 3.06,6.732 4.284,9.792c1.224,4.284 0.611,8.568 2.447,12.24c0.612,1.836 3.672,1.836 4.284,0c3.061,-6.732 -3.059,-17.748 -6.731,-24.48z" id="svg_6" fill="#ffffff"/>
  <path transform="rotate(20.5823 131.527 239.801)" d="m134.43293,241.5608c0,-6.12 0,-12.24 -1.224,-17.748c-0.612,-3.06 -4.284,-3.06 -4.284,0c-0.612,5.508 -0.612,10.404 -0.612,15.912s-1.224,11.016 0.612,16.524c0.612,2.447 4.896,2.447 5.508,0c1.225,-4.896 0.613,-9.792 0,-14.688z" id="svg_7" fill="#ffffff"/>
  <path transform="rotate(32.5192 96.2657 290.403)" d="m100.50239,276.69666c-1.78286,4.55882 -3.56573,9.11689 -6.24002,13.67571c-2.22858,4.10368 -5.34859,8.20662 -5.7943,12.76544c-0.44572,2.27941 2.67429,2.73529 4.01144,1.82278c3.56573,-3.19043 5.34932,-8.66176 7.13145,-13.22058c2.22931,-4.55882 3.56573,-9.11689 4.45716,-13.67571c0.44572,-2.73529 -3.12074,-3.64706 -3.56573,-1.36765l0,0.00001z" id="svg_8" fill="#ffffff" stroke="null"/>
  <path transform="rotate(53.1521 49.7628 302.377)" d="m60.05877,289.51276c-3.672,4.283 -7.344,9.18 -11.016,12.852c-1.836,1.836 -4.284,3.672 -6.732,4.896c-2.448,1.224 -3.672,1.224 -5.508,3.672c-1.224,1.836 0,4.284 1.836,4.896c5.508,1.225 10.404,-4.284 14.076,-7.956c4.284,-4.896 7.344,-10.403 10.404,-16.523c0.613,-1.837 -1.836,-3.673 -3.06,-1.837z" id="svg_9" fill="#ffffff"/>
  <path transform="rotate(51.3975 13.8177 274.243)" d="m29.35383,278.00805c-4.896,-0.38293 -10.404,-1.15067 -15.3,-2.30134c-5.508,-1.5336 -7.956,-4.2185 -11.016,-7.28759c-1.836,-1.53423 -5.508,-1.15067 -6.12,1.15067c-0.612,10.35605 20.196,12.27384 32.436,11.12316c1.836,-0.38293 1.836,-2.6849 0,-2.6849z" id="svg_11" fill="#ffffff" stroke="null"/>
  <path transform="rotate(67.8954 27.6707 232.432)" d="m33.08879,246.06549c-4.896,-9.18 -3.672,-18.36 -5.508,-28.152c-0.612,-2.447 -4.284,-2.447 -4.896,0c-1.836,10.404 1.224,21.42 7.344,29.988c1.224,1.836 3.673,0.612 3.06,-1.836z" id="svg_12" fill="#ffffff"/>
  <path transform="rotate(93.0994 79.4245 233.505)" d="m83.65406,213.10061c-11.016,10.404 -13.464,25.705 -12.852,39.78c0,2.448 4.284,2.448 4.284,0c0.612,-12.852 4.284,-25.704 12.24,-36.107c2.449,-2.449 -1.223,-6.121 -3.672,-3.673z" id="svg_13" fill="#ffffff"/>
  <path transform="rotate(113.089 121.706 276.57)" d="m133.35807,261.81996c-11.016,5.508 -19.584,15.912 -26.316,26.316c-1.836,2.448 2.448,4.896 3.672,2.448c7.344,-9.18 16.524,-16.524 25.092,-24.48c2.448,-2.448 -0.001,-5.508 -2.448,-4.284z" id="svg_14" fill="#ffffff"/>
  <path transform="rotate(127.172 130.538 325.159)" d="m141.57752,316.1881c-8.568,0 -18.36,7.344 -23.868,13.464c-2.448,2.448 1.224,6.12 3.672,3.672c3.06,-3.06 6.732,-5.508 10.404,-7.344c3.672,-1.836 7.956,-3.06 11.628,-5.508c1.836,-1.224 0,-4.284 -1.836,-4.284z" id="svg_15" fill="#ffffff"/>
  <path transform="rotate(127.172 117.936 370.643)" d="m133.54225,364.79976c-4.896,0 -9.792,1.836 -14.688,2.448c-6.12,1.224 -12.24,1.836 -17.748,4.284c-3.06,1.224 -1.836,5.508 1.224,4.896c5.508,-1.224 11.628,-1.836 17.136,-2.448c4.896,-0.612 11.016,-0.612 15.3,-3.672c3.06,-1.224 1.835,-5.508 -1.224,-5.508z" id="svg_16" fill="#ffffff"/>
  <path transform="rotate(127.172 94.9556 411.757)" d="m108.11393,409.59043c-7.956,-1.44438 -17.748,0 -26.316,0.48146c-3.06,0 -3.06,3.37022 0,3.37022c8.568,0.48146 17.748,1.92584 26.316,0.48146c3.059,-0.48146 3.059,-3.85168 0,-4.33314z" id="svg_17" fill="#ffffff" stroke="null"/>
  <path transform="rotate(-88.4055 72.3944 498.439)" d="m85.78241,495.99137c-4.284,-1.224 -8.568,-0.612 -12.853,-0.612c-4.283,0 -9.18,0 -13.464,0.612c-3.06,0 -3.06,4.896 0,4.896c4.284,0 9.181,0 13.464,0.612c4.284,0 8.568,0.612 12.853,-0.612c2.448,0 2.448,-3.672 0,-4.896z" id="svg_18" fill="#ffffff"/>
  <path transform="rotate(84.7864 74.6156 532.945)" d="m99.90119,537.16982c-7.956,-7.956 -15.912,-15.3 -24.479,-22.032c-6.12,-4.896 -15.301,-14.076 -23.257,-13.464c-3.06,0 -5.508,3.672 -3.672,6.732c3.672,6.12 12.24,9.792 17.748,13.464c6.732,4.896 13.464,11.016 20.196,17.136c-12.24,4.896 -24.48,11.628 -36.108,17.748c-3.672,1.836 -1.224,8.568 3.061,7.344c15.3,-4.896 28.764,-14.688 44.676,-17.748c3.671,-0.612 4.284,-6.12 1.835,-9.18z" id="svg_19" fill="#ffffff"/>
  <path transform="rotate(-46.4518 76.5381 452.16)" d="m87.57752,443.1881c-8.568,0 -18.36,7.344 -23.868,13.464c-2.448,2.448 1.224,6.12 3.672,3.672c3.06,-3.06 6.732,-5.508 10.404,-7.344c3.672,-1.836 7.956,-3.06 11.628,-5.508c1.836,-1.224 0,-4.284 -1.836,-4.284z" id="svg_1" fill="#ffffff"/>
  <path transform="rotate(165.307 90.115 64.8868)" d="m88.70044,52.66142c-1.836,-3.06 -6.121,-0.612 -4.284,2.448c1.224,3.06 3.06,6.732 4.284,9.792c1.224,4.284 0.611,8.568 2.447,12.24c0.612,1.836 3.672,1.836 4.284,0c3.061,-6.732 -3.059,-17.748 -6.731,-24.48z" id="svg_2" fill="#ffffff"/>
 </g>

</svg>