<svg width="362" height="935.9999999999999" xmlns="http://www.w3.org/2000/svg" xml:space="preserve" version="1.1" fill="#ffffff">

 <g>
  <title>Layer 1</title>
  <path transform="rotate(114.729 62.9541 900.992)" stroke="null" id="svg_20" d="m89.55002,880.83744c-11.14691,14.64012 -18.31278,31.18983 -27.86727,46.46648c-4.77725,7.0018 -17.51657,0.63653 -13.53553,-6.36527c7.16587,-12.7295 13.53553,-26.09761 23.09002,-38.19163c-7.16587,-0.63653 -14.33174,-1.27305 -22.29381,-1.90958c-3.18483,-0.63653 -8.75828,-0.63653 -11.14691,-3.18368l-0.79491,-0.63549c0,0 -0.79621,0 -0.79621,-0.63653c-1.59242,-1.27305 0,-3.81916 1.59242,-3.81916l0,0c0.79621,-0.63653 1.59372,-0.63653 3.18483,-0.63653c3.98234,-0.63549 7.96208,0 12.73932,0c10.3507,0.63653 19.90519,1.27409 30.25589,0.63653c4.77594,-0.63653 7.96078,4.45569 5.57215,8.27485z"/>
  <path transform="rotate(94.784 112.446 85.509)" stroke="null" id="svg_7" d="m132.06599,77.29612c-8.00755,1.32661 -14.01321,3.97983 -21.01982,6.19085c-8.00755,2.65322 -15.01415,5.30644 -22.02076,8.40186c-2.00189,0.88441 1.00094,2.65322 4.00377,1.76881c6.00566,-2.65322 13.01227,-4.42203 20.01887,-6.63305c7.00661,-2.21102 16.0151,-3.97983 22.02076,-6.63305c3.00283,-1.32661 1.00094,-3.97983 -3.00283,-3.09542z"/>
  <path transform="rotate(-90.629 162.641 201.819)" stroke="null" id="svg_8" d="m178.92989,189.78554c-13.2061,3.96462 -25.67854,13.59298 -35.21628,21.52222c-1.46734,1.69912 0.73367,3.39825 2.93469,2.2655c5.86938,-3.96462 12.47243,-7.92924 19.07548,-11.32749c5.13571,-2.83187 11.00509,-5.09737 15.40712,-8.49561c2.20102,-2.2655 0,-4.53099 -2.20102,-3.96462z"/>
  <path transform="rotate(164.386 99.2039 23.5802)" stroke="null" id="svg_11" d="m103.11278,1.8954c0,-2.9455 -2.91549,-2.9455 -2.91549,0c-0.4166,7.36375 -1.24979,13.99112 -2.08366,21.35487c-0.83319,6.62737 -2.91617,13.25475 -2.91617,20.6185c0,3.68187 2.91617,5.15462 3.75005,1.47275c3.74937,-12.51837 4.58188,-30.19137 4.16528,-43.44612z"/>
  <path transform="rotate(139.002 134.114 145.421)" stroke="null" id="svg_18" d="m138.75916,122.69864c-4.22268,12.46333 -8.76965,25.88537 -11.69357,41.22485c-0.97446,4.79515 1.29929,7.66974 2.27375,3.83487c3.57304,-13.42204 9.41982,-23.00922 12.01892,-39.30742c0.32429,-4.79202 -1.29982,-9.58561 -2.5991,-5.7523z"/>
  <g transform="rotate(-128.175 181.06 470.675)" stroke="null" id="svg_62">
   <g stroke="null" id="svg_21"/>
   <g stroke="null" id="svg_22"/>
   <g stroke="null" id="svg_23"/>
   <g stroke="null" id="svg_24"/>
   <g stroke="null" id="svg_25"/>
   <g stroke="null" id="svg_26"/>
   <g stroke="null" id="svg_27"/>
   <g stroke="null" id="svg_28"/>
   <g stroke="null" id="svg_29"/>
   <g stroke="null" id="svg_30"/>
   <g stroke="null" id="svg_31"/>
   <g stroke="null" id="svg_32"/>
   <g stroke="null" id="svg_33"/>
   <g stroke="null" id="svg_34"/>
   <g stroke="null" id="svg_35"/>
   <path stroke="null" id="svg_4" d="m232.15207,606.01089c9.98769,3.91612 20.21658,7.37237 28.98185,9.7927c8.76527,2.42033 19.47655,4.95682 21.16491,1.73768c0.96478,-1.83951 -5.87093,-7.93886 -9.52175,-8.63106c-8.52407,-2.8802 -11.91725,-0.2371 -19.2189,-1.62151c-7.54284,-0.92453 -16.06692,-3.80474 -26.29581,-7.26098c-3.65082,-0.6922 1.48007,4.8311 4.8897,5.98318z"/>
   <path stroke="null" id="svg_5" d="m113.05843,542.09557c-8.24125,-6.44598 -17.02102,-14.35706 -25.40748,-22.79564c-2.79549,-2.81286 -4.76203,-0.17541 -1.96654,2.63744c11.18195,11.25143 31.18601,36.91923 43.36033,38.09032c2.65027,0.82026 1.03471,-3.57506 -0.82895,-5.4503c-4.65915,-4.6881 -10.10491,-8.32122 -15.15736,-12.48182z"/>
   <path stroke="null" id="svg_6" d="m71.63352,496.80462c-13.62533,-14.69636 -26.33761,-26.7326 -32.86954,-47.01265c-0.91306,-2.66011 -2.9498,-2.34403 -2.03674,0.31608c4.63569,22.25541 14.60902,42.56176 33.4315,53.64978c4.35446,2.68641 4.42458,-4.60917 1.47478,-6.9532z"/>
   <path stroke="null" id="svg_9" d="m151.2949,574.29538c15.33085,11.76522 33.91083,17.24595 50.33611,22.29227c3.02897,1.04438 3.77926,-2.70785 1.15643,-4.53779c-16.89342,-6.44187 -32.56842,-15.24042 -47.83727,-24.82454c-4.77753,-2.26434 -8.02665,4.02015 -3.65527,7.07006z"/>
   <path stroke="null" id="svg_10" d="m0.54181,337.03442c0.28004,5.30167 1.16389,10.81304 1.95075,15.42333c0.68987,3.7092 3.73079,-0.43911 3.54774,-4.8397c-0.48545,-4.50561 -0.765,-9.80711 -1.04504,-15.10878c-0.28053,-5.30184 0.05466,-12.99205 -1.03411,-17.70719c-0.49589,-1.90702 -2.31825,0.06228 -2.836,3.35208c-1.63931,6.36989 -1.16529,13.47374 -0.58334,18.88026z"/>
   <path stroke="null" id="svg_13" d="m303.47956,619.67226c8.12589,3.1599 16.01491,5.1783 24.66801,6.37882c8.6531,1.20052 21.07307,2.55411 30.54375,-1.30564c4.29409,-1.80632 4.58444,-4.90721 0.69914,-5.63103c-6.76967,-1.12399 -15.71312,0.77638 -23.12844,1.04101c-11.06375,0.68233 -21.60029,-0.59473 -31.37275,-2.68965c-1.11936,-0.8944 -3.41158,1.55921 -1.40972,2.20649z"/>
   <path stroke="null" id="svg_17" d="m29.72233,423.85758c-3.14274,-7.64547 -6.85352,-13.93293 -10.61473,-22.6263c-3.14274,-7.64547 -5.71781,-16.65082 -7.89666,-25.75577c-1.51068,-5.65489 -4.27918,-4.93134 -3.164,0.82692c3.61784,20.82631 11.119,46.68545 20.07213,56.441c2.86972,4.09016 3.50971,-3.33636 1.60325,-8.88584z"/>
  </g>
  <path transform="rotate(48.0767 132.291 729.093)" stroke="null" id="svg_14" d="m132.41144,750.2622c-2.54631,-5.76599 -3.8333,-11.86825 -4.11615,-19.01213c-0.28285,-7.14389 -0.32118,-16.15876 3.6843,-22.9007c1.50344,-2.2063 4.53245,-1.46809 4.28833,0.40195c0.78175,5.98017 -2.21406,12.96818 -2.69123,19.28366c-0.72641,6.89686 0.06087,14.16474 1.60304,20.97236c0.51037,1.41074 -2.00274,3.37097 -2.76829,1.25486z"/>
  <path transform="rotate(48.0767 93.75 780.739)" stroke="null" id="svg_16" d="m102.34787,799.76317c-2.77843,-6.21692 -6.94542,-12.0149 -10.18664,-18.09149c-3.66425,-7.876 -5.64347,-15.62004 -5.18292,-22.82016c-0.12737,-1.2451 -1.81042,-1.37661 -1.97774,-0.68402c-1.21581,13.84774 0.85203,31.83573 13.60482,44.65712c2.86136,2.34061 5.21598,-0.29895 3.74248,-3.06145z"/>
  <path transform="rotate(58.609 74.9535 841.739)" stroke="null" id="svg_19" d="m93.22559,858.0793c-5.4551,-0.86848 -13.29161,-6.41174 -19.16898,-10.56919c-6.57734,-4.98482 -12.73531,-11.33535 -18.335,-17.95438c-3.4998,-4.13689 0.41371,-6.01905 3.91351,-1.88216c4.89973,5.79165 10.21881,10.2176 16.09619,14.37504c5.17856,3.33142 10.77442,5.29622 15.94978,8.62537c4.47654,2.50313 5.1801,7.98294 1.5445,7.40531z"/>
 </g>
</svg>